# xmcd CD database file
#
# Track frame offsets:
#	150
#	34585
#	66956
#	93438
#	123430
#	156909
#	198235
#	221065
#	255435
#	281007
#
# Disc length: 4587 seconds
#
# Revision: 0
# Processed by: cddbd v1.5.1PL0 Copyright (c) Steve Scherf et al.
# Submitted via: CDex 1.51
#
DISCID=8e11e90a
DTITLE=Theo Travis Quartet - Passion Dance - Live at Ronnie's
DYEAR=1999
DGENRE=Jazz
TTITLE0=Dog Days
TTITLE1=Passion Dance
TTITLE2=Shore Thing
TTITLE3=Off The Wagon
TTITLE4=Black And Crimson
TTITLE5=Impressions
TTITLE6=Everything Matters
TTITLE7=Just One Of Those Things
TTITLE8=Tread Softly
TTITLE9=Nightmare In New York
EXTD=YEAR: 1999
EXTT0=
EXTT1=
EXTT2=
EXTT3=
EXTT4=
EXTT5=
EXTT6=
EXTT7=
EXTT8=
EXTT9=
PLAYORDER=
